<?xml version="1.0" standalone="no"?>
<!DOCTYPE svg PUBLIC "-//W3C//DTD SVG 20010904//EN"
 "http://www.w3.org/TR/2001/REC-SVG-20010904/DTD/svg10.dtd">
<svg version="1.0" xmlns="http://www.w3.org/2000/svg"
 width="512.000000pt" height="512.000000pt" viewBox="0 0 512.000000 512.000000"
 preserveAspectRatio="xMidYMid meet">

<g transform="translate(0.000000,512.000000) scale(0.100000,-0.100000)"
fill="#000000" stroke="none">
<path d="M2570 4235 l0 -55 -140 0 -140 0 0 -70 0 -70 -140 0 -140 0 0 -70 0
-70 -140 0 -140 0 0 -65 0 -65 -140 0 -140 0 0 -55 0 -55 -140 0 -140 0 0 -70
0 -70 -140 0 -140 0 0 -100 0 -100 140 0 140 0 0 -70 0 -70 140 0 140 0 0 -70
0 -70 140 0 140 0 0 -65 0 -65 140 0 140 0 0 -60 0 -60 140 0 140 0 0 -65 0
-65 140 0 140 0 0 -500 0 -500 -430 0 -430 0 0 -195 0 -195 -290 0 -290 0 0
-70 0 -70 -70 0 -70 0 0 -210 0 -210 1650 0 1650 0 0 210 0 210 -70 0 -70 0 0
70 0 70 -290 0 -290 0 0 195 0 195 -265 0 -265 0 0 1315 0 1315 -235 0 -235 0
0 -55z"/>
</g>
</svg>
